<svg version="1.2" xmlns="http://www.w3.org/2000/svg" viewBox="0 0 375 228" width="500" height="304">
	<style>
		tspan { white-space:pre } 
		.s0 { fill: #000000 } 
		.t1 { font-size: 30px;fill: #000000;font-weight: 400;font-family: "Economica-Regular", "Economica" } 
		.s2 { fill: #c7171e } 
		.t3 { font-size: 18px;fill: #000000;font-weight: bold;font-family: "Bariol" } 
		.s4 { fill: none;stroke: #000000;stroke-miterlimit:10;stroke-width: 1.1 } 
	</style>
	<g>
		<path class="s0" d="m250.65-218.44c4.41-1.68 8.7-4.05 13.27-4.87 7.65-1.37 15.06-0.04 21.61 4.68 1.23 0.89 2.76 1.52 4.25 1.89 4.35 1.1 8.76 1.99 13.13 3 2.24 0.52 4.07 1.38 4.2 4.21 0.13 2.72-1.07 4.45-3.37 5.47-3.77 1.67-7.61 3.2-11.42 4.8-4.81 2.03-9.65 4-14.41 6.13-8.01 3.58-10.46 3.16-16.69-2.66 1.06 1.44 1.84 3.28 3.23 4.22 2.05 1.38 2.07 2.85 1.67 4.96-2.01 10.6-1.67 21.35 2.59 31.12 4.09 9.38 9.68 18.18 15.34 26.76 4.49 6.81 5.29 8.88 0.02 15.08-5.72 6.74-11.99 13.01-18.12 19.38-1.21 1.26-2.92 2.05-4.39 3.05q-0.52-0.27-1.03-0.53c1.3-4 2.35-8.12 3.98-11.98 1.98-4.69 4.47-9.16 6.72-13.73 0.79-1.61 0.75-2.71-1.18-3.78-8.48-4.69-16.83-9.6-24.85-14.21 0.64 0.77 1.7 2.03 3.23 3.87-5.03 2.73-9.71 5.48-14.57 7.87-6.21 3.05-12.64 5.65-18.8 8.79-1.56 0.8-2.92 2.73-3.56 4.44-1.65 4.4-2.85 8.96-4.36 13.92-1.7-1.22-3.02-2.17-4.34-3.11q-0.24 0.19-0.47 0.39c0.61 0.76 1.26 1.49 1.82 2.28 5.06 7.23 10.33 14.32 15.05 21.77 2.77 4.38 1.57 8.97-1.7 12.83-4.55 5.37-9.25 10.61-13.88 15.9-0.78 0.9-1.54 1.82-2.12 2.51 4.89 6.49 9.61 12.74 14.26 19.05 0.12 0.16-0.56 0.91-0.99 1.57 6.43-0.39 7.36 5.68 11.07 8.47q-0.13 0.61-0.25 1.22c-7.08 0.41-14.16 0.83-21.24 1.17-0.48 0.02-1.17-0.44-1.46-0.87-1.39-2.03 1.27-8.21 3.7-8.73 1.77-0.38 3.53-0.77 6.18-1.34-1.45-0.07-2.08-0.26-2.62-0.11-6.06 1.68-9.76-1.59-12.96-6.05-2.05-2.86-4.61-5.43-6.18-8.52-1.37-2.69-2.66-6.07-2.25-8.89 0.82-5.58 2.76-11.01 4.47-16.43 0.2-0.63 1.93-1.12 2.93-1.08 2.89 0.12 5.76 0.54 9.5 0.94-8.28-2.61-15.9-4.24-22.79-7.43-5.94-2.75-11.44-6.82-16.42-11.14-6.09-5.28-7.23-12.81-6.21-20.45 1.62-12.15 7.09-22.54 16.76-30.06 9.36-7.28 19.35-13.75 29.88-21.15-4.67 1.06-8.65 1.88-12.58 2.87-7.51 1.91-14.9 4.53-22.52 5.67-4.87 0.73-10.07-0.64-15.11-1.14-0.64-0.06-1.23-0.58-2.6-1.27 1.59-0.61 2.48-1.06 3.42-1.3 3.61-0.93 7.45-1.31 10.81-2.78 13.44-5.9 27.5-8.67 42.06-9.38 0.82-0.04 1.65-0.09 2.78-0.96-0.92-0.46-1.8-1.11-2.78-1.35-16.13-4.07-32.02-3.53-47.42 3.04-11.98 5.1-24 5.45-36.22 1.24-1.55-0.53-3-1.38-5.5-2.55 1.89-0.62 2.72-1.1 3.56-1.13 10.25-0.38 19.76-3.25 28.95-7.75 13.87-6.8 28.35-6.54 43.05-3.15 5.86 1.35 11.81 2.34 17.71 3.5q0.22-0.49 0.44-0.97c-1-0.7-1.94-1.5-3.01-2.08-14.13-7.63-28.99-12.77-45.29-11.17-6.45 0.63-12.81 2.54-19.11 4.24-7.26 1.96-14.3 4.76-21.62 6.41-12.28 2.78-23.9 0.4-34.61-6.17-1.04-0.64-1.63-1.99-2.43-3.01 1.31-0.3 2.75-1.12 3.91-0.83 9.79 2.45 19.57 2.33 29.18-0.44 5.8-1.67 11.54-3.81 16.95-6.47 16.03-7.88 32.44-9.01 49.07-2.82 7.12 2.65 13.72 6.73 20.55 10.17 1.07 0.54 2.12 1.12 3.44 1.83-0.04-0.64 0.07-1.07-0.09-1.23-8.97-8.94-18.15-17.57-30.25-22.31-10.81-4.23-21.5-2.9-32.07 0.65-19.49 6.56-39.44 9.51-59.9 6.99-6.66-0.82-13.13-3.26-19.67-5.04-0.9-0.24-1.87-0.75-2.48-1.43-0.59-0.65-1.21-1.82-1-2.51 0.2-0.64 1.43-1.09 2.3-1.34 0.65-0.19 1.45 0 2.16 0.12 13.79 2.47 27.28 0.58 40.8-2.3 16.09-3.42 31.76-8.04 46.94-14.36 9.55-3.98 18.42-2.73 26.72 3.59q19.55 14.88 34.35 34.49c3.99 5.29 7.2 5.41 10.53-0.34 3.94-6.8 7.19-13.99 10.75-21.04-3.94-3.62-8.48-6.16-9.41-11.94 4.4 0.87 8.49 1.29 12.3 2.55 2.86 0.95 4.89 0.63 6.8-1.52l-0.08 0.08zm28.18 7.85c-3.82-2.33-5.29-1.99-6.65 1.26 2.52-0.48 4.59-0.87 6.65-1.26z"/>
		<path class="s0" d="m141.4-64.64c-1.35 5.61-2.77 10.95 0.06 16.19 2.2 4.06 5.04 7.61 9.78 8.55 3.6 0.71 7.11-0.2 9.37-3.45 2.48-3.57 2.84-7.48 0.72-11.33-1.99-3.61-3.99-7.26-6.46-10.54-10.91-14.49-8.08-30.81 0.68-44.9 1.8-2.9 4.21-5.41 6.34-8.11q0.42 0.29 0.85 0.57c-1.25 3.74-2.18 7.63-3.8 11.2-4.96 10.93-2.54 21.22 2.82 30.99 2.45 4.48 6.08 8.4 9.58 12.2 4.22 4.57 8.62 8.92 9.84 15.36 1.55 8.23-2.29 13.97-8.55 18.67-11.79 8.87-30.03 5.04-37.02-7.75-4.76-8.72-2.17-20.87 5.78-27.65z"/>
		<path class="s0" d="m183.72-49.29c-3.23-4.46-6.19-8.26-8.77-12.3-0.74-1.15-0.82-3.13-0.42-4.51 0.55-1.91 1.84-3.61 2.82-5.43 4.74 2.13 9.33 4.2 14.36 6.46-2.69 5.31-5.32 10.5-7.99 15.78z"/>
		<path class="s0" d="m177.55-13.63c0.08-5.98 1.73-9.23 4.62-9.73 10.45-1.78 13.98 0 16.79 8.5-7.15 0.41-14.26 0.82-21.41 1.23z"/>
		<path class="s0" d="m282.42-108.77c3.11 6.65 5.75 13.1 6.32 20.36-7.4-0.45-11.61-4.15-12.9-10.56-0.99-4.91 4.49-6.22 6.58-9.8z"/>
		<path class="s0" d="m184.08-42.65c2.84 5.49 5.64 10.92 8.81 17.06-4.56 0.26-8.48 0.7-12.39 0.64-2.6-0.04-4.31-4.41-2.92-6.69 2.12-3.49 4.16-7.03 6.51-11z"/>
		<path class="s0" d="m286.72-74.13c-4.26-3.56-8.51-7.12-13.16-11.01 1.96-1.89 3.6-4.67 4.96-4.54 2.98 0.28 5.9 1.88 8.65 3.32 0.67 0.35 0.77 2.15 0.82 3.3 0.13 2.72 0.07 5.44 0.09 8.16z"/>
		<path class="s0" d="m247.7-96.79c3.24-3.2 5.81-5.88 8.58-8.34 0.57-0.5 2.27-0.59 2.78-0.13 1.13 1.02 2.65 2.57 2.57 3.81-0.17 2.71-1.19 5.38-1.96 8.03-0.5 1.71-1.56 2.33-3.29 1.36-2.68-1.5-5.39-2.94-8.68-4.73z"/>
		<path class="s0" d="m250.73-218.52q-5.08-4.05-10.18-8.11 0.4-0.68 0.8-1.37c5.94 1.19 11.87 2.39 18.64 3.75-3.76 2.33-6.54 4.06-9.33 5.8-0.01 0.01 0.07-0.07 0.07-0.07z"/>
	</g>
	<text id="D   I   G   I   T   A   L" style="transform: matrix(1,0,0,1,92.66,221.42)" >
		<tspan x="0" y="0" class="t1">D   I   G   I   T   A   L
</tspan>
	</text>
	<g>
		<path class="s2" d="m267.01 149.27c-5.32 5.14-10.61 10.31-15.98 15.4-1.31 1.24-2.81 2.32-4.36 3.26-4.77 2.88-8.53 2.45-11.64-2.25-3.6-5.43-6.53-11.32-9.6-17.08-3.14-5.89-6.09-11.88-9.13-17.82-0.11-0.22-0.22-0.46-0.41-0.6q-2.74-2.16-5.5-4.28c-1.35 1.76-3.17 3.34-3.98 5.32-4.01 9.76-7.51 19.74-11.72 29.41-1.54 3.54-3.95 7.25-6.99 9.49-8.13 6-18.42 1.04-19.69-9.66-1.1-9.25-0.16-18.19 6.95-25.69 9.4-9.92 9.72-22.06 6.55-34.5-1.14-4.46-1.17-8.37 0-13.02 4.02-15.99 7.36-32.16 10.46-48.35 1.43-7.49 0.56-15.07-2.96-22.05-1.7-3.37-0.79-6.13 1.55-8.63 4.07-4.33 14-5.84 19.04-0.33 11.07 12.11 14.55 26.25 11.19 41.87-1.74 8.11-5.28 15.82-7.99 23.72-0.4 1.18-0.71 2.39-1.06 3.59q0.48 0.41 0.97 0.8c1.46-1.2 3.12-2.22 4.34-3.62 9-10.35 17.93-20.77 26.84-31.2 3.23-3.77 6.42-7.58 9.48-11.49 2.59-3.3 3.39-7.14 3-11.34-0.19-2.02-0.21-4.2 0.33-6.13 2.44-8.85 12.32-11.11 19.03-4.46 6.53 6.49 9.12 17.64 4.97 25.94-2.88 5.77-6.84 11.11-10.89 16.18-10.37 12.99-21.06 25.73-31.63 38.57-4.85 5.9-4.86 12.41-1.5 18.76 2.53 4.79 5.71 9.32 9.14 13.52 3.99 4.87 6.11 4.65 11.94 0.05q4.93-3.93 9.87-7.88c0.54-0.27 1.07-0.56 1.63-0.8 4.88-2.16 9.23-1.12 13.03 2.38 3.21 2.97 4.14 7.78 1.69 12.38"/>
		<path class="s2" d="m113.05 41.39c0.18 10.84-3.11 20.54-5.83 30.36-2.17 7.83-4.74 15.58-6.47 23.51-2.07 9.48-2.72 19 2.86 27.85 6.97 11.06 23.03 13.86 33.71 6.37 12.72-8.92 15.99-21.32 13.49-35.55-2.96-16.83-6.83-33.49-10.25-50.24-0.51-2.49-0.93-5.03-1.08-7.57-0.42-6.74 1.59-12.76 7.26-16.57 5.61-3.77 11.64-7.04 17.78-9.88 5.11-2.37 9.64-0.76 12.18 3.28 2.46 3.91 2.06 8.53-2.27 12.06-10.96 8.92-10.29 19.84-6.71 31.76 4.36 14.53 8.54 29.12 12.43 43.78 3.27 12.32 1.87 24.01-7.14 33.71-3.85 4.14-8.37 7.72-12.87 11.18-7.7 5.92-15.81 11.31-23.39 17.37-12.83 10.24-25.83 10.47-39.24 1.51-4.03-2.69-7.94-5.58-11.8-8.5-1.99-1.51-2.2-3.14-0.1-5.05 1.78-1.62 3.37-3.53 4.66-5.56 3.33-5.24 3.51-10.7 0.63-16.25-3.82-7.37-9.38-13.36-15.85-18.3-5.86-4.48-7.73-9.34-5.56-16.55 1.52-5.04 3.22-9.21 7.67-12.59 8.44-6.41 14.13-14.86 16.05-25.58 1.26-7.03-1.33-12.72-5.93-17.56-3.32-3.5-6.93-6.91-10.93-9.56-5.19-3.43-4.55-11.35 1.1-14.48 5.16-2.86 10.78-3.54 16.05-0.74 4.87 2.59 9.85 5.45 13.79 9.22 5.22 4.99 5.44 12.18 5.8 18.57z"/>
		<path class="s2" d="m282.43 132.34c2.21-2.97 4.62-6.89 3.55-11.07-1.07-4.18-2.62-7.37-6.93-8.81-4.2-1.4-9 0-11 1-3.13 2.5-6 4-9.8 7.81-0.34 0.34-0.82 0.53-1.29 0.63-2.01 0.47-2.96-0.57-3.42-2.92-1.37-7.07 0.56-13.48 3.62-19.67 8.24-16.64 16.62-33.2 24.8-49.87 5.29-10.77 10.28-21.69 15.48-32.5 0.94-1.96 2.13-3.82 3.41-5.58 5.5-7.55 14.81-8.41 21.94-2.27 5.33 4.59 8.62 10.46 11.04 16.89 8.55 22.71 16.79 45.54 25.67 68.13 4.43 11.27 2.94 21.6-2.45 31.84-5.71 10.84-11.44 21.66-17.32 32.4-1.6 2.92-3.3 6.42-7.36 6.23-4.12-0.18-5.75-3.72-7.28-6.89-1.73-3.6-3.35-7.29-4.65-11.07-1.59-4.63-1.37-9.33 0.66-13.86q2.84-6.31 5.69-12.6c4.68-10.32 2.49-19.67-6.26-26.73-6.69-5.4-17.36-3.52-21.41 4.04-1.58 2.95-2.6 6.29-3.33 9.57-2.73 12.32-5.07 24.73-7.92 37.02-1.25 5.4-3.2 10.66-5.22 15.84-0.7 1.8-2.41 3.31-3.91 4.68-2.13 1.95-15.71-9.12-13.71-12.12m61.4-94.74q0-0.47-0.14-0.92c-1.05-3.51-2.56-9.98-5.16-15.98-2.4-5.52-6.56-5.54-10.39-0.78-5.02 6.24-8.49 13.2-9.72 21.19-0.8 5.2 1.87 9.61 7.07 10.5 3.16 0.54 6.58 0.61 9.73 0.04 6.71-1.21 8.75-3.99 8.62-14.07z"/>
		<path class="s2" d="m91.38 53.2c-0.32 9.43-4.74 17.03-11.38 23.23-4.68 4.36-10.01 8.05-15.23 11.8-7.25 5.21-7.46 8.65-0.98 14.64 7.03 6.5 13.88 13.21 20.72 19.91 1.29 1.26 2.28 2.84 3.27 4.37 4.67 7.24 4.4 13.96-1.27 20.38-7.84 8.88-17.76 14.69-29.06 17.97-7.62 2.21-14.54-1.42-17.78-8.95q-5.82-13.48-11.24-27.13c-6.4-16.12-12.7-32.28-18.96-48.45-2.57-6.63-4.79-13.4-7.46-19.99-3.06-7.57-2.46-14.79 0.57-22.25 4.55-11.18 10.55-21.33 19.9-29.07 8.13-6.73 13.49-5.58 22.05-0.57 7.82 4.58 14.95 10.33 22.34 15.62 5.32 3.81 10.68 7.58 15.82 11.63 5.39 4.24 8.79 9.68 8.67 16.87zm-49.74 22.14c10.09-1.8 18.64-6.49 24.99-14.66 5.17-6.64 4.08-13.1-2.7-18.25-2.99-2.27-5.97-4.67-9.27-6.4-5.44-2.85-11.04-5.43-16.75-7.69-2.9-1.15-6.13-0.23-7.7 2.58-2.39 4.29-5.07 8.74-6.03 13.44-2.03 9.96 2.68 18.39 7.95 26.4 2.18 3.31 5.4 4.77 9.51 4.58z"/>
		<g>
			<text id="R" style="transform: matrix(1,0,0,1,359.22,162.93)" >
				<tspan x="0" y="0" class="t3">R
</tspan>
			</text>
			<path fill-rule="evenodd" class="s4" d="m364.05 165.95c-5.25 0-9.5-4.25-9.5-9.5 0-5.25 4.25-9.5 9.5-9.5 5.25 0 9.5 4.25 9.5 9.5 0 5.25-4.25 9.5-9.5 9.5z"/>
		</g>
	</g>
</svg>